<svg id="Capa_1" enable-background="new 0 0 512.001 512.001" height="512" viewBox="0 0 512.001 512.001" width="512" xmlns="http://www.w3.org/2000/svg"><g><g clip-rule="evenodd" fill-rule="evenodd"><path d="m256.517 405.641c82.602 0 149.981-67.381 149.981-149.984 0-82.633-67.38-150.014-149.981-150.014-82.63 0-150.009 67.381-150.009 150.014 0 82.603 67.379 149.984 150.009 149.984z" fill="#ddf6ff"/><path d="m256.517 105.643c82.828 0 149.981 67.154 149.981 150.014 0 82.83-67.153 149.984-149.981 149.984-4.705 0-9.383-.227-13.975-.651 76.28-7.03 136.006-71.208 136.006-149.333s-59.726-142.304-136.006-149.361c4.592-.427 9.27-.653 13.975-.653z" fill="#cfecf7"/><path d="m256.517 105.643c11.82 0 23.329 1.389 34.356 3.969 10.317 8.391 19.474 20.552 27.07 35.604 5.244 10.431 9.779 22.337 13.408 35.32 14.031-6.18 26.929-14.059 38.353-23.33 3.26 3.77 6.35 7.683 9.241 11.765-13.04 10.545-27.837 19.445-43.994 26.277 3.516 16.47 5.641 34.357 6.095 53.067h65.282c.113 2.438.17 4.875.17 7.342 0 2.579-.057 5.131-.17 7.653h-65.282c-.454 18.738-2.579 36.596-6.095 53.095 16.072 6.803 30.841 15.647 43.824 26.164-2.892 4.053-5.982 7.966-9.27 11.708-11.339-9.214-24.18-17.037-38.154-23.189-3.629 13.011-8.164 24.89-13.408 35.349-7.455 14.74-16.412 26.732-26.476 35.122-11.226 2.665-22.933 4.082-34.951 4.082-11.339 0-22.365-1.247-32.995-3.628-10.29-8.391-19.446-20.553-27.014-35.576-5.272-10.459-9.78-22.338-13.408-35.349-14.287 6.293-27.411 14.344-38.948 23.841l-.057.027c-3.288-3.741-6.406-7.626-9.326-11.679 13.209-10.829 28.262-19.928 44.73-26.873-3.515-16.499-5.641-34.356-6.094-53.095h-66.699c-.142-2.523-.198-5.074-.198-7.653 0-2.467.057-4.904.17-7.342h66.728c.454-18.71 2.58-36.597 6.094-53.067-16.497-6.974-31.606-16.129-44.844-26.986l-.057-.028c2.919-4.054 6.038-7.967 9.326-11.68.057.057.142.113.227.17 11.537 9.469 24.661 17.52 38.948 23.812 3.628-12.983 8.135-24.89 13.408-35.32 7.71-15.308 17.064-27.64 27.609-36.059 10.432-2.294 21.261-3.513 32.401-3.513zm-6.803 293.45v-83.142c-18.539.736-36.227 4.109-52.611 9.694 3.43 12.586 7.738 24.065 12.756 34.045 10.8 21.402 24.718 35.803 39.855 39.403zm0-98.139v-37.644h-61.313c.425 16.839 2.268 32.911 5.272 47.737 17.575-5.868 36.425-9.384 56.041-10.093zm0-52.639v-37.646c-19.616-.709-38.467-4.224-56.041-10.063-3.005 14.826-4.848 30.87-5.272 47.709zm0-52.642v-83.114c-15.138 3.601-29.056 17.974-39.855 39.375-5.018 10.006-9.326 21.459-12.756 34.073 16.384 5.584 34.072 8.957 52.611 9.666zm14.995-83.114v83.114c18.538-.709 36.255-4.082 52.611-9.666-3.402-12.614-7.711-24.067-12.756-34.073-10.772-21.401-24.69-35.774-39.855-39.375zm0 98.11v37.646h61.342c-.426-16.839-2.268-32.883-5.272-47.709-17.575 5.868-36.426 9.354-56.07 10.063zm0 52.641v37.645c19.643.709 38.494 4.225 56.069 10.093 3.005-14.826 4.847-30.898 5.272-47.737h-61.341zm0 52.642v83.142c15.165-3.6 29.083-18.001 39.855-39.402 5.045-9.979 9.354-21.459 12.756-34.045-16.356-5.586-34.072-8.959-52.611-9.695z" fill="#52cef0"/><path d="m211.872 502.277c-21.657-13.323-36.766-35.179-41.811-59.954-.567-2.835 1.956-3.033 4.081-2.579 32.797 7.199 50.712 5.215 83.197.283 15.505-2.381 31.635-1.445 36.198 16.355 6.52 25.371-20.892 52.613-45.864 55.334-12.897 1.418-24.917-2.636-35.801-9.439zm237.627-88.84c-22.422 11.935-48.926 13.919-72.851 5.726-2.749-.935-1.615-3.231-.17-4.818 22.819-24.634 30.161-41.104 42.321-71.634 5.812-14.57 14.769-28.007 32.457-22.933 25.172 7.229 34.81 44.618 24.52 67.58-5.3 11.82-14.909 20.126-26.277 26.079zm43.966-243.162c-.624 25.398-11.963 49.438-30.841 66.246-2.154 1.929-3.601-.17-4.252-2.211-10.262-31.975-21.005-46.489-41.585-72.086-9.836-12.218-17.121-26.618-4.024-39.517 18.68-18.396 55.983-8.362 70.894 11.85 7.711 10.432 10.233 22.904 9.808 35.718zm-192.812-159.765c21.316 13.861 35.858 36.113 40.28 61.003.51 2.834-2.041 2.977-4.139 2.466-32.599-8.022-50.57-6.491-83.169-2.381-15.561 1.984-31.634.651-35.773-17.263-5.868-25.542 22.224-52.075 47.253-54.173 12.927-1.076 24.861 3.289 35.548 10.348zm-235.701 80.789c22.451-11.934 48.955-13.891 72.879-5.698 2.721.936 1.616 3.203.17 4.792-22.819 24.633-30.189 41.132-42.35 71.632-5.811 14.571-14.769 28.008-32.457 22.934-25.171-7.229-34.781-44.646-24.519-67.58 5.301-11.821 14.938-20.155 26.277-26.08zm-46.403 248.265c.822-25.399 12.302-49.381 31.323-66.05 2.154-1.898 3.6.199 4.252 2.27 10.006 32.031 20.636 46.602 41.045 72.342 9.751 12.302 16.952 26.759 3.742 39.572-18.793 18.256-56.012 7.966-70.781-12.359-7.626-10.489-10.063-22.962-9.581-35.775z" fill="#95d6a4"/><path d="m254.108 440.508c1.077-.17 2.126-.34 3.232-.481 15.505-2.381 31.635-1.445 36.198 16.355 6.52 25.371-20.892 52.613-45.864 55.334-6.151.681-12.104.113-17.83-1.417 22.705-6.463 44.589-30.955 38.692-53.917-2.325-9.099-7.682-13.776-14.428-15.874zm195.391-27.071c-17.093 9.099-36.595 12.416-55.502 9.837 10.573-1.447 20.92-4.734 30.501-9.837 11.367-5.953 20.977-14.259 26.277-26.079 9.382-20.949 2.182-53.889-18.256-65 4.876-3.459 10.942-4.819 18.737-2.58 25.172 7.229 34.81 44.618 24.52 67.58-5.3 11.82-14.909 20.126-26.277 26.079zm43.966-243.162c-.624 25.398-11.963 49.438-30.841 66.246-2.154 1.929-3.601-.17-4.252-2.211-1.786-5.584-3.601-10.629-5.472-15.307 9.61-14.314 15.138-31.21 15.562-48.729.426-12.814-2.098-25.286-9.808-35.718-7.059-9.554-19.105-16.838-31.805-19.9 19.474-5.612 45.071 3.997 56.806 19.9 7.713 10.433 10.235 22.905 9.81 35.719zm-192.812-159.765c21.316 13.861 35.858 36.113 40.28 61.003.51 2.834-2.041 2.977-4.139 2.466-7.767-1.899-14.684-3.288-21.203-4.195-4.763-24.181-19.134-45.724-39.94-59.273-5.924-3.912-12.246-7.002-18.879-8.788 2.778-.794 5.584-1.333 8.334-1.56 12.926-1.077 24.86 3.288 35.547 10.347zm-205.2 70.952c14.145-1.928 28.687-.566 42.378 4.139 2.721.936 1.616 3.203.17 4.792-22.819 24.633-30.189 41.132-42.35 71.632-5.811 14.571-14.769 28.008-32.457 22.934-2.211-.652-4.28-1.503-6.265-2.579 6.208-4.395 10.46-12.189 13.72-20.354 12.161-30.5 19.531-46.999 42.35-71.632 1.446-1.589 2.551-3.856-.17-4.792-5.669-1.957-11.509-3.317-17.376-4.14zm-61.031 209.543c4.366-6.435 9.524-12.303 15.449-17.491 2.154-1.898 3.6.199 4.252 2.27 10.006 32.031 20.636 46.602 41.045 72.342 9.751 12.302 16.952 26.759 3.742 39.572-9.836 9.553-24.718 11.282-38.778 7.853 5.159-1.503 9.865-4.054 13.776-7.853 13.209-12.814 6.009-27.271-3.742-39.572-16.865-21.261-27.069-34.924-35.744-57.121z" fill="#78c2a4"/></g><path d="m339.345 434.499c2.807-3.033 7.568-3.203 10.573-.369 3.033 2.807 3.203 7.54.397 10.573-.142.142-43.144 47.482-115.37 37.078-4.082-.595-6.917-4.394-6.35-8.476.595-4.11 4.365-6.944 8.476-6.35 64.404 9.271 102.161-32.342 102.274-32.456zm-198.737-17.917c4.054.936 6.548 4.961 5.641 8.987-.936 4.025-4.933 6.548-8.958 5.613-.199-.029-62.674-13.892-89.49-81.755-1.531-3.855.368-8.221 4.224-9.723 3.855-1.531 8.192.369 9.723 4.195 23.897 60.523 78.719 72.656 78.86 72.683zm-81.722-181.024c1.19 3.94-1.077 8.136-5.046 9.298-3.94 1.191-8.135-1.076-9.297-5.017-.057-.198-19.134-61.23 26.419-118.266 2.579-3.231 7.285-3.771 10.517-1.19 3.231 2.579 3.77 7.286 1.191 10.518-40.594 50.826-23.841 104.487-23.784 104.657zm112.62-160.53c-2.863 2.948-7.597 3.033-10.573.142-2.948-2.891-3.005-7.625-.142-10.573.142-.142 44.334-46.404 116.249-34.158 4.082.68 6.832 4.535 6.151 8.617-.68 4.082-4.535 6.832-8.589 6.151-64.176-10.914-102.982 29.707-103.096 29.821zm199.332 19.049c-4.025-.907-6.548-4.903-5.641-8.93.906-4.025 4.903-6.576 8.929-5.67.17.057 62.73 13.438 90.028 81.158 1.531 3.827-.34 8.193-4.167 9.724-3.826 1.531-8.192-.311-9.723-4.167-24.32-60.323-79.256-72.086-79.426-72.115zm84.7 175.101c-1.162-3.969 1.077-8.136 5.046-9.298 3.968-1.19 8.136 1.048 9.325 5.017.058.199 19.135 61.23-26.418 118.265-2.552 3.231-7.257 3.77-10.517 1.19-3.231-2.579-3.771-7.285-1.19-10.517 40.591-50.854 23.81-104.487 23.754-104.657z" fill="#5aa687"/></g></svg>